<svg id="Layer_1" data-name="Layer 1" xmlns="http://www.w3.org/2000/svg" viewBox="0 0 600 200"><path d="M77.55,166.52a1.39,1.39,0,0,1-1-.4,1.37,1.37,0,0,1-.4-1V154.29a1.36,1.36,0,0,1,2.72,0v10.87a1.33,1.33,0,0,1-.4,1A1.37,1.37,0,0,1,77.55,166.52Z"/><path d="M126.47,142.06a1.33,1.33,0,0,1-1-.4,1.37,1.37,0,0,1-.4-1V67a1.36,1.36,0,0,1,.75-1.21l10.87-5.44A1.36,1.36,0,0,1,138,62.81l-1.3.42v72.83c0,.36-9,5.35-9.22,5.6a1.33,1.33,0,0,1-1,.4Z"/><path d="M126.47,143.42a2.72,2.72,0,0,1-1.21-5.15l9.36-4.69v-72a2.72,2.72,0,1,1,5.44,0v73.66a2.74,2.74,0,0,1-1.5,2.44l-10.87,5.43a2.74,2.74,0,0,1-1.22.29Z"/><path d="M77.55,167.88a2.66,2.66,0,0,1-1.21-.29L32.85,145.85a2.71,2.71,0,0,1-1.5-2.43V132.55a2.72,2.72,0,0,1,5.44,0v9.19l40.76,20.38,47.71-23.85a2.72,2.72,0,0,1,3.93,2.59,2.72,2.72,0,0,1-1.5,2.27L78.77,167.59a2.74,2.74,0,0,1-1.22.29Z"/><path d="M77.55,155.65a1.31,1.31,0,0,1-.61-.15L33.46,133.76a1.36,1.36,0,1,1,1.22-2.43l42.87,21.44,48.31-24.16a1.36,1.36,0,0,1,1.22,2.43L78.16,155.5A1.31,1.31,0,0,1,77.55,155.65Z"/><path d="M77.55,155.36a1.31,1.31,0,0,1-.61-.15L33.46,133.47,34.68,131l42.87,21.44,48.31-24.16,1.22,2.44L78.16,155.21a1.31,1.31,0,0,1-.61.15Z"/><path d="M77.55,167.59a2.66,2.66,0,0,1-1.21-.29L32.85,145.56a2.71,2.71,0,0,1-1.5-2.43V132.26h5.44l42.12,22,47-25.68-.6,9.37,2.43,4.86L78.77,167.3A2.74,2.74,0,0,1,77.55,167.59Z"/><path d="M77.55,166.23a1.35,1.35,0,0,1-1-.4,1.37,1.37,0,0,1-.4-1V154a1.36,1.36,0,1,1,2.72,0v10.87a1.37,1.37,0,0,1-1.36,1.36Z"/><path d="M77.55,122.75a1.31,1.31,0,0,1-.61-.15L33.46,100.86l1.22-2.43,42.87,21.44,48.31-24.16,1.22,2.43L78.16,122.6A1.31,1.31,0,0,1,77.55,122.75Z"/><path d="M77.55,135a2.66,2.66,0,0,1-1.21-.29L32.85,113a2.71,2.71,0,0,1-1.5-2.43V99.64h5.44L36,100.77l40.77,20.38,47.7-23.85,3.18,12.93L78.77,134.69A2.74,2.74,0,0,1,77.55,135Z"/><path d="M77.55,133.62a1.37,1.37,0,0,1-1.36-1.36V121.39a1.36,1.36,0,0,1,2.72,0v10.87a1.35,1.35,0,0,1-.4,1A1.37,1.37,0,0,1,77.55,133.62Z"/><path d="M77.55,103.72a1.35,1.35,0,0,1-1-.4c-.25-.25-.4-14.45-.4-4.47v3c0-11.09.61-11.7,1.36-11.7s1.36.61,1.36,11.7v-3c0-10-.14,4.22-.4,4.47A1.33,1.33,0,0,1,77.55,103.72Z"/><path d="M77.55,105.08a2.66,2.66,0,0,1-1.21-.29L32.85,83.05a2.71,2.71,0,0,1-1.5-2.43V69.75h5.44v9.19L77.55,99.32l47.71-23.85,2.43,4.86L78.77,104.79A2.74,2.74,0,0,1,77.55,105.08Z"/><path d="M77.55,103.19a1.43,1.43,0,0,1-.61-.14L33.46,81.3c-.43-.21-.72-11-.75-11.47a1.36,1.36,0,0,1,.61-1.22,1.4,1.4,0,0,1,1.36-.08L77.55,90l48.31-24.15a1.35,1.35,0,0,1,1.36.08c.41.26.64,11.07.61,11.55a1.38,1.38,0,0,1-.75,1.14L78.16,103.05A1.43,1.43,0,0,1,77.55,103.19Z"/><path d="M34.07,72.47a2.72,2.72,0,0,1-1.22-5.15l38.05-19a2.72,2.72,0,1,1,2.43,4.87l-38,19A2.66,2.66,0,0,1,34.07,72.47Z"/><path d="M137.34,64.31a2.66,2.66,0,0,1-1.21-.28L93.86,42.89,73.33,53.16A2.75,2.75,0,0,1,70.61,53a2.73,2.73,0,0,1,.29-4.71L92.64,37.42a2.73,2.73,0,0,1,2.43,0l43.49,21.75a2.71,2.71,0,0,1-1.22,5.14Z"/><path d="M34.07,102.36a2.72,2.72,0,0,1-1.22-5.15l16.31-8.15a2.72,2.72,0,1,1,2.43,4.86l-16.31,8.16a2.79,2.79,0,0,1-1.21.28Z"/><path d="M34.07,135a2.72,2.72,0,0,1-1.22-5.15L54.59,119A2.72,2.72,0,1,1,57,123.82L35.28,134.69a2.8,2.8,0,0,1-1.21.29Z"/><path d="M159.68,64.8h16.18v6.25a31,31,0,0,1,7.91-6.4,18.12,18.12,0,0,1,8.34-1.8q6.4,0,13.38,4.17l-7.41,14.82a15.41,15.41,0,0,0-9-3.31q-13.23,0-13.23,20v36.32H159.68Z"/><path d="M260.41,64.8h16.26v70H260.41V127.5q-10,9.36-21.5,9.35a31,31,0,0,1-24-10.5q-9.42-10.71-9.42-26.75,0-15.75,9.42-26.25a30.36,30.36,0,0,1,23.59-10.5q12.22,0,21.93,10.07ZM222,99.6q0,10.07,5.4,16.4a17.65,17.65,0,0,0,14,6.4q9,0,14.52-6.19,5.53-6.39,5.54-16.25t-5.54-16.25a18.3,18.3,0,0,0-14.38-6.26,17.89,17.89,0,0,0-13.95,6.33A23.34,23.34,0,0,0,222,99.6Z"/><path d="M308.87,79.9v54.94H292.61V79.9h-5.75V64.8h5.75V58.44q0-13.23,4.61-18.69,6.31-7.62,18.41-7.63a31.6,31.6,0,0,1,10.85,2.52V51.18l-1.65-.86c-3.5-1.78-6.38-2.66-8.63-2.66q-4.32,0-5.82,3.09T308.87,62.4v2.4h17.61V79.9Z"/><path d="M383.57,64.8h16.25v70H383.57V127.5q-10,9.36-21.5,9.35a31,31,0,0,1-24-10.5q-9.42-10.71-9.42-26.75,0-15.75,9.42-26.25a30.36,30.36,0,0,1,23.58-10.5q12.24,0,21.94,10.07Zm-38.4,34.8q0,10.07,5.39,16.4a17.65,17.65,0,0,0,13.95,6.4q9,0,14.53-6.19,5.54-6.39,5.54-16.25T379,83.71a18.32,18.32,0,0,0-14.38-6.26,17.89,17.89,0,0,0-14,6.33A23.34,23.34,0,0,0,345.17,99.6Z"/><path d="M466.33,67.82v21.5q-5.54-6.76-9.93-9.28a19.25,19.25,0,0,0-10.13-2.59,20,20,0,0,0-15.18,6.4,22.44,22.44,0,0,0-6,16q0,9.85,5.83,16.18a19.64,19.64,0,0,0,15,6.33,20.53,20.53,0,0,0,10.28-2.52q4.32-2.44,10.14-9.49v21.36a42.54,42.54,0,0,1-19.7,5.1q-16.26,0-27.19-10.5T408.51,100.1a35.48,35.48,0,0,1,11.08-26.46q11.07-10.78,27.18-10.79A40.62,40.62,0,0,1,466.33,67.82Zm-8.86,83.61L432.4,163.72l-7.15-9.31,22.58-13.74Z"/><path d="M494,64.8v70H477.86v-70Z"/><path d="M521.91,34.07V87.45L544.7,64.8h21.72L536,94.21l32.65,40.63h-21L524.5,105.28l-2.59,2.59v27H505.73V34.07Z"/></svg>